<svg xmlns="http://www.w3.org/2000/svg" viewBox="0 0 64 64">
  <defs>
    <linearGradient id="g" x1="0" x2="1" y1="0" y2="1">
      <stop offset="0%" stop-color="#00D9FF"/>
      <stop offset="100%" stop-color="#00B8D4"/>
    </linearGradient>
  </defs>
  <rect x="8" y="12" width="48" height="40" rx="6" ry="6" fill="#0d1117" stroke="url(#g)" stroke-width="2"/>
  <rect x="20" y="22" width="24" height="20" rx="3" ry="3" fill="#0b1520" stroke="#00d9ff" stroke-width="1.5"/>
  <circle cx="26" cy="28" r="2" fill="#00d9ff"/>
  <circle cx="32" cy="28" r="2" fill="#00d9ff"/>
  <circle cx="38" cy="28" r="2" fill="#00d9ff"/>
  <rect x="24" y="33" width="16" height="5" rx="2.5" fill="#00b8d4"/>
  <g fill="#00b8d4">
    <rect x="14" y="18" width="4" height="6" rx="1"/>
    <rect x="14" y="26" width="4" height="6" rx="1"/>
    <rect x="14" y="34" width="4" height="6" rx="1"/>
    <rect x="14" y="42" width="4" height="6" rx="1"/>
    <rect x="46" y="18" width="4" height="6" rx="1"/>
    <rect x="46" y="26" width="4" height="6" rx="1"/>
    <rect x="46" y="34" width="4" height="6" rx="1"/>
    <rect x="46" y="42" width="4" height="6" rx="1"/>
  </g>
</svg>

